<svg width="25" height="30" viewBox="0 0 18 23" fill="none" xmlns="http://www.w3.org/2000/svg">
<path d="M14.7966 12.3008C14.8074 11.4661 15.0291 10.6477 15.4411 9.92176C15.8531 9.19581 16.4421 8.58587 17.1532 8.1487C16.7015 7.50354 16.1055 6.9726 15.4127 6.59804C14.7199 6.22349 13.9492 6.01565 13.162 5.99102C11.4828 5.81476 9.85485 6.99585 8.99914 6.99585C8.12687 6.99585 6.80937 6.00852 5.39064 6.03771C4.47297 6.06735 3.57862 6.33421 2.79474 6.81227C2.01086 7.29033 1.36419 7.96328 0.917721 8.76558C-1.01628 12.114 0.426311 17.035 2.27892 19.7417C3.20582 21.067 4.2891 22.5475 5.70655 22.495C7.09361 22.4374 7.61165 21.6105 9.28595 21.6105C10.9447 21.6105 11.4307 22.495 12.8769 22.4616C14.3653 22.4374 15.3031 21.1303 16.1975 19.7924C16.8634 18.8481 17.3759 17.8044 17.7159 16.6999C16.8512 16.3342 16.1133 15.722 15.5941 14.9397C15.075 14.1574 14.7976 13.2396 14.7966 12.3008Z" fill="white"/>
<path d="M12.065 4.2109C12.8766 3.23669 13.2764 1.98451 13.1796 0.720276C11.9397 0.850496 10.7945 1.44306 9.97198 2.37989C9.56984 2.83755 9.26184 3.36999 9.06559 3.94676C8.86935 4.52353 8.7887 5.13332 8.82827 5.74128C9.44841 5.74766 10.0619 5.61325 10.6226 5.34816C11.1832 5.08307 11.6764 4.69422 12.065 4.2109Z" fill="white"/>
</svg>
