<svg width="20" height="20" viewBox="0 0 20 20" fill="none" xmlns="http://www.w3.org/2000/svg">
<path d="M5.83333 10H7.5V11.6667H5.83333V10ZM17.5 5.00001V16.6667C17.5 17.1087 17.3244 17.5326 17.0118 17.8452C16.6993 18.1577 16.2754 18.3333 15.8333 18.3333H4.16667C3.24167 18.3333 2.5 17.5833 2.5 16.6667V5.00001C2.5 4.55798 2.67559 4.13405 2.98816 3.82149C3.30072 3.50893 3.72464 3.33334 4.16667 3.33334H5V1.66667H6.66667V3.33334H13.3333V1.66667H15V3.33334H15.8333C16.2754 3.33334 16.6993 3.50893 17.0118 3.82149C17.3244 4.13405 17.5 4.55798 17.5 5.00001ZM4.16667 6.66667H15.8333V5.00001H4.16667V6.66667ZM15.8333 16.6667V8.33334H4.16667V16.6667H15.8333ZM12.5 11.6667V10H14.1667V11.6667H12.5ZM9.16667 11.6667V10H10.8333V11.6667H9.16667ZM5.83333 13.3333H7.5V15H5.83333V13.3333ZM12.5 15V13.3333H14.1667V15H12.5ZM9.16667 15V13.3333H10.8333V15H9.16667Z" fill="#2D3748" fill-opacity="0.32"/>
</svg>
